<?xml version="1.0" encoding="utf-8"?>
<!-- Generator: Adobe Illustrator 20.1.0, SVG Export Plug-In . SVG Version: 6.00 Build 0)  -->
<svg version="1.1" id="Layer_1" xmlns="http://www.w3.org/2000/svg" xmlns:xlink="http://www.w3.org/1999/xlink" x="0px" y="0px"
	 viewBox="0 0 499.9 150" style="enable-background:new 0 0 499.9 150;" xml:space="preserve">
<style type="text/css">
	.st0{fill:#FFFFFF;stroke:#EF92AB;stroke-width:6;stroke-miterlimit:10;}
	.st1{fill:#FDE9D2;stroke:#EF92AB;stroke-width:2;stroke-miterlimit:10;}
	.st2{fill:#EF92AB;}
	.st3{fill:none;stroke:#EF92AB;stroke-width:9;stroke-miterlimit:10;}
	.st4{font-family:'OpenSans-Bold';}
	.st5{font-size:50px;}
</style>
<title>Artboard 1bunbun_logo2</title>
<rect x="3.1" y="3" class="st0" width="493.6" height="144.1"/>
<g id="Logo">
	<path class="st1" d="M192.6,80.4c4.6,24.1-33.8,43.9-84.6,43.9s-89-19.8-82.9-46.1C30.2,56,58.6,27.4,109.4,26
		C168.6,24.5,188.2,57.7,192.6,80.4z"/>
	<path class="st2" d="M199.5,73.5c-4.3-10.2-10.9-18.7-18.1-26.9c-11.4-12.8-25.3-21.8-42-26c-16-4-32.6-4.7-48.8-1.9
		c-21.1,3.4-39.5,12.1-54.2,27.9C29.2,54.4,22.8,62.8,19.3,73c-0.8,2.2-1.3,4.5-1.9,6.8v3.8c0,1.4,0.1,2.8,0.3,4.2
		c0.6,4.3,2.6,8.3,5.7,11.5c0.6,0.4,1.2,0.9,1.7,1.5l0.5,0.2c0.2-1.2,0.6-2.3,1.2-3.3c-1.4-4.3-1.9-8.9-1.4-13.4
		c0.2-1.6,0.7-3.2,1.5-4.6c0.6-2.5,1.5-4.8,2.9-7c1.6-3.2,3.6-6.2,5.9-8.9c8.1-12,18-22.1,31.7-28.5c12.5-5.8,26-8.9,39.8-9.1
		c15.2-0.3,30,1.5,44,7.8c12.4,5.6,22.3,13.8,27.9,26.6c2,4.7,3.2,9.5,2.2,14.6c-0.6,3.5-2.4,6.7-5.1,9.1c-7,6.4-15.6,9.9-24.5,12.3
		c-22.6,6.1-46.4,6.8-69.3,2c-9.4-1.9-17.6-6.1-24-13.3c-8-8.9-8-19.6,0.1-28.5C66,48.6,75.7,44.2,86.4,42
		c15.8-3.2,31.3-2.5,46.2,4.1c4,1.8,7.6,4.3,10.9,7.2c5,4.6,5,10.7,0.6,15.9s-10.2,7.8-16.7,9.2c-10.8,2.3-21.3,1.7-31.3-3.4
		c-1.5-0.8-2.9-1.8-4.1-3c-2.9-2.9-2.9-5.9,0-8.9c3.4-3.4,7.7-4.8,12.2-5.5c4.9-0.7,9.7-0.7,14.2,1.6c1.8,0.9,3.9,2,3.4,4.3
		c-0.4,2.2-2.8,2.1-4.6,2.4c-2.6,0.3-5-0.1-6.7-2.6c-1.2-1.9-3.8-2.5-5.7-1.3c-0.1,0-0.1,0.1-0.2,0.1c-2,1.3-2.6,4-1.3,6.1
		c2.6,4.8,8.9,7.5,15.4,6.5c1.1-0.2,2.1-0.4,3.2-0.7c4.5-1.3,7.8-3.9,8.7-8.6c1-4.9-1-8.9-4.8-12c-4.1-3.1-9.2-4.9-14.4-5
		c-8.9-0.5-17.2,1.2-24.3,7c-8.5,6.9-8.5,17.4,0,24.3c6.5,5.3,14.3,7.5,22.4,8.4c11.1,1.2,21.9-0.1,31.8-5.7
		c2.8-1.5,5.3-3.4,7.6-5.6c9.9-9.5,9.4-22.6-1.2-31.9c-6.5-5.7-14.2-8.8-22.5-10.9c-18.9-4.6-37.6-3.9-55.6,4
		c-7,3-13.2,7.5-18.2,13.2C40.4,63.9,40.9,80,52.3,92c8.9,9.4,20.2,14.2,32.7,16.3c23.6,4.2,47.9,2.9,70.9-3.6
		c9.9-2.8,19.2-7,26.8-14.4c3.7-3.5,6.4-8,7.7-12.9c0.1-0.4,0.3-0.7,0.5-1.3c1,2.1,1.7,4.3,2.1,6.6c2.3-1.7,5.3-2.2,8.1-1.5
		c0.1-0.8,0.2-1.5,0.2-2.2C200.9,77,200.3,75.2,199.5,73.5z"/>
	<path class="st3" d="M196.8,78.8c5.3,28.2-37.3,48.2-86.9,48.2s-97.8-22-87.3-48.8"/>
</g>
<text transform="matrix(1 0 0 1 213.11 63.91)" class="st2 st4 st5">Bun Bun </text>
<text transform="matrix(1 0 0 1 213.11 123.91)" class="st2 st4 st5">Bake Shop</text>
</svg>
